<svg width="413" height="400" viewBox="0 0 413 400" fill="none" xmlns="http://www.w3.org/2000/svg">
  <g clip-path="url(#clip0_394_120)">
    <path
      d="M54.3431 239.5L8 239.5C6.067 239.5 4.5 237.933 4.5 236L4.5 189.657C4.5 186.539 8.27 184.977 10.4749 187.182L56.818 233.525C59.0229 235.73 57.4613 239.5 54.3431 239.5Z"
      stroke="#96969633" />
    <path
      d="M54.3431 39.5L8 39.5C6.067 39.5 4.5 37.933 4.5 36L4.5 -10.3431C4.5 -13.4613 8.27 -15.0229 10.4749 -12.818L56.818 33.5251C59.0229 35.73 57.4613 39.5 54.3431 39.5Z"
      stroke="#96969633" />
    <path
      d="M54.3431 119.5L8 119.5C6.067 119.5 4.5 117.933 4.5 116L4.5 69.6569C4.5 66.5387 8.27 64.9771 10.4749 67.182L56.818 113.525C59.0229 115.73 57.4613 119.5 54.3431 119.5Z"
      stroke="#96969633" />
    <path
      d="M63.5 270.343L63.5 224C63.5 222.067 61.933 220.5 60 220.5L13.6569 220.5C10.5387 220.5 8.9771 224.27 11.182 226.475L57.5251 272.818C59.73 275.023 63.5 273.461 63.5 270.343Z"
      stroke="#96969633" />
    <path
      d="M63.5 70.3431L63.5 24C63.5 22.067 61.933 20.5 60 20.5L13.6569 20.5C10.5387 20.5 8.9771 24.27 11.182 26.4749L57.5251 72.818C59.73 75.0229 63.5 73.4613 63.5 70.3431Z"
      stroke="#96969633" />
    <path
      d="M63.5 150.343L63.5 104C63.5 102.067 61.933 100.5 60 100.5L13.6569 100.5C10.5387 100.5 8.9771 104.27 11.182 106.475L57.5251 152.818C59.73 155.023 63.5 153.461 63.5 150.343Z"
      stroke="#96969633" />
    <rect x="0.5" y="-0.5" width="59" height="59" rx="3.5" transform="matrix(1 0 0 -1 4 199)" stroke="#96969633" />
    <path
      d="M122.343 119.5L76 119.5C74.067 119.5 72.5 117.933 72.5 116L72.5 69.6569C72.5 66.5387 76.27 64.9771 78.4749 67.182L124.818 113.525C127.023 115.73 125.461 119.5 122.343 119.5Z"
      stroke="#96969633" />
    <path
      d="M131.5 150.343L131.5 104C131.5 102.067 129.933 100.5 128 100.5L81.6569 100.5C78.5387 100.5 76.9771 104.27 79.182 106.475L125.525 152.818C127.73 155.023 131.5 153.461 131.5 150.343Z"
      stroke="#96969633" />
    <path
      d="M131.5 30.3431L131.5 -16C131.5 -17.933 129.933 -19.5 128 -19.5L81.6569 -19.5C78.5387 -19.5 76.9771 -15.73 79.182 -13.5251L125.525 32.818C127.73 35.0229 131.5 33.4613 131.5 30.3431Z"
      stroke="#96969633" />
    <rect x="0.5" y="-0.5" width="59" height="59" rx="3.5" transform="matrix(1 0 0 -1 72 79)" stroke="#96969633" />
    <path
      d="M190.343 299.5L144 299.5C142.067 299.5 140.5 297.933 140.5 296L140.5 249.657C140.5 246.539 144.27 244.977 146.475 247.182L192.818 293.525C195.023 295.73 193.461 299.5 190.343 299.5Z"
      stroke="#96969633" />
    <path
      d="M190.343 99.5L144 99.5C142.067 99.5 140.5 97.933 140.5 96L140.5 49.6569C140.5 46.5387 144.27 44.9771 146.475 47.182L192.818 93.5251C195.023 95.73 193.461 99.5 190.343 99.5Z"
      stroke="#96969633" />
    <path
      d="M190.343 179.5L144 179.5C142.067 179.5 140.5 177.933 140.5 176L140.5 129.657C140.5 126.539 144.27 124.977 146.475 127.182L192.818 173.525C195.023 175.73 193.461 179.5 190.343 179.5Z"
      stroke="#96969633" />
    <path
      d="M199.5 330.343L199.5 284C199.5 282.067 197.933 280.5 196 280.5L149.657 280.5C146.539 280.5 144.977 284.27 147.182 286.475L193.525 332.818C195.73 335.023 199.5 333.461 199.5 330.343Z"
      stroke="#96969633" />
    <path
      d="M199.5 130.343L199.5 84C199.5 82.067 197.933 80.5 196 80.5L149.657 80.5C146.539 80.5 144.977 84.27 147.182 86.4749L193.525 132.818C195.73 135.023 199.5 133.461 199.5 130.343Z"
      stroke="#96969633" />
    <path
      d="M199.5 210.343L199.5 164C199.5 162.067 197.933 160.5 196 160.5L149.657 160.5C146.539 160.5 144.977 164.27 147.182 166.475L193.525 212.818C195.73 215.023 199.5 213.461 199.5 210.343Z"
      stroke="#96969633" />
    <path
      d="M199.5 10.3431L199.5 -36C199.5 -37.933 197.933 -39.5 196 -39.5L149.657 -39.5C146.539 -39.5 144.977 -35.73 147.182 -33.5251L193.525 12.818C195.73 15.0229 199.5 13.4613 199.5 10.3431Z"
      stroke="#96969633" />
    <rect x="0.5" y="-0.5" width="59" height="59" rx="3.5" transform="matrix(1 0 0 -1 140 259)" stroke="#96969633" />
    <rect x="0.5" y="-0.5" width="59" height="59" rx="3.5" transform="matrix(1 0 0 -1 140 59)" stroke="#96969633" />
    <path
      d="M258.343 239.5L212 239.5C210.067 239.5 208.5 237.933 208.5 236L208.5 189.657C208.5 186.539 212.27 184.977 214.475 187.182L260.818 233.525C263.023 235.73 261.461 239.5 258.343 239.5Z"
      stroke="#96969633" />
    <path
      d="M258.343 39.5L212 39.5C210.067 39.5 208.5 37.933 208.5 36L208.5 -10.3431C208.5 -13.4613 212.27 -15.0229 214.475 -12.818L260.818 33.5251C263.023 35.73 261.461 39.5 258.343 39.5Z"
      stroke="#96969633" />
    <path
      d="M258.343 119.5L212 119.5C210.067 119.5 208.5 117.933 208.5 116L208.5 69.6569C208.5 66.5387 212.27 64.9771 214.475 67.182L260.818 113.525C263.023 115.73 261.461 119.5 258.343 119.5Z"
      stroke="#96969633" />
    <path
      d="M267.5 270.343L267.5 224C267.5 222.067 265.933 220.5 264 220.5L217.657 220.5C214.539 220.5 212.977 224.27 215.182 226.475L261.525 272.818C263.73 275.023 267.5 273.461 267.5 270.343Z"
      stroke="#96969633" />
    <path
      d="M267.5 70.3431L267.5 24C267.5 22.067 265.933 20.5 264 20.5L217.657 20.5C214.539 20.5 212.977 24.27 215.182 26.4749L261.525 72.818C263.73 75.0229 267.5 73.4613 267.5 70.3431Z"
      stroke="#96969633" />
    <path
      d="M267.5 150.343L267.5 104C267.5 102.067 265.933 100.5 264 100.5L217.657 100.5C214.539 100.5 212.977 104.27 215.182 106.475L261.525 152.818C263.73 155.023 267.5 153.461 267.5 150.343Z"
      stroke="#96969633" />
    <rect x="0.5" y="-0.5" width="59" height="59" rx="3.5" transform="matrix(1 0 0 -1 208 199)" stroke="#96969633" />
    <path
      d="M326.343 359.5L280 359.5C278.067 359.5 276.5 357.933 276.5 356L276.5 309.657C276.5 306.539 280.27 304.977 282.475 307.182L328.818 353.525C331.023 355.73 329.461 359.5 326.343 359.5Z"
      stroke="#96969633" />
    <path
      d="M326.343 159.5L280 159.5C278.067 159.5 276.5 157.933 276.5 156L276.5 109.657C276.5 106.539 280.27 104.977 282.475 107.182L328.818 153.525C331.023 155.73 329.461 159.5 326.343 159.5Z"
      stroke="#96969633" />
    <path
      d="M326.343 239.5L280 239.5C278.067 239.5 276.5 237.933 276.5 236L276.5 189.657C276.5 186.539 280.27 184.977 282.475 187.182L328.818 233.525C331.023 235.73 329.461 239.5 326.343 239.5Z"
      stroke="#96969633" />
    <path
      d="M326.343 39.5L280 39.5C278.067 39.5 276.5 37.933 276.5 36L276.5 -10.3431C276.5 -13.4613 280.27 -15.0229 282.475 -12.818L328.818 33.5251C331.023 35.73 329.461 39.5 326.343 39.5Z"
      stroke="#96969633" />
    <path
      d="M335.5 390.343L335.5 344C335.5 342.067 333.933 340.5 332 340.5L285.657 340.5C282.539 340.5 280.977 344.27 283.182 346.475L329.525 392.818C331.73 395.023 335.5 393.461 335.5 390.343Z"
      stroke="#96969633" />
    <path
      d="M335.5 190.343L335.5 144C335.5 142.067 333.933 140.5 332 140.5L285.657 140.5C282.539 140.5 280.977 144.27 283.182 146.475L329.525 192.818C331.73 195.023 335.5 193.461 335.5 190.343Z"
      stroke="#96969633" />
    <path
      d="M335.5 270.343L335.5 224C335.5 222.067 333.933 220.5 332 220.5L285.657 220.5C282.539 220.5 280.977 224.27 283.182 226.475L329.525 272.818C331.73 275.023 335.5 273.461 335.5 270.343Z"
      stroke="#96969633" />
    <path
      d="M335.5 70.3431L335.5 24C335.5 22.067 333.933 20.5 332 20.5L285.657 20.5C282.539 20.5 280.977 24.27 283.182 26.4749L329.525 72.818C331.73 75.0229 335.5 73.4613 335.5 70.3431Z"
      stroke="#96969633" />
    <rect x="0.5" y="-0.5" width="59" height="59" rx="3.5" transform="matrix(1 0 0 -1 276 319)" stroke="#96969633" />
    <rect x="0.5" y="-0.5" width="59" height="59" rx="3.5" transform="matrix(1 0 0 -1 276 119)" stroke="#96969633" />
    <path
      d="M395.343 239.5L349 239.5C347.067 239.5 345.5 237.933 345.5 236L345.5 189.657C345.5 186.539 349.27 184.977 351.475 187.182L397.818 233.525C400.023 235.73 398.461 239.5 395.343 239.5Z"
      stroke="#96969633" />
    <path
      d="M395.343 39.5L349 39.5C347.067 39.5 345.5 37.933 345.5 36L345.5 -10.3431C345.5 -13.4613 349.27 -15.0229 351.475 -12.818L397.818 33.5251C400.023 35.73 398.461 39.5 395.343 39.5Z"
      stroke="#96969633" />
    <path
      d="M395.343 119.5L349 119.5C347.067 119.5 345.5 117.933 345.5 116L345.5 69.6569C345.5 66.5387 349.27 64.9771 351.475 67.182L397.818 113.525C400.023 115.73 398.461 119.5 395.343 119.5Z"
      stroke="#96969633" />
    <path
      d="M404.5 270.343L404.5 224C404.5 222.067 402.933 220.5 401 220.5L354.657 220.5C351.539 220.5 349.977 224.27 352.182 226.475L398.525 272.818C400.73 275.023 404.5 273.461 404.5 270.343Z"
      stroke="#96969633" />
    <path
      d="M404.5 70.3431L404.5 24C404.5 22.067 402.933 20.5 401 20.5L354.657 20.5C351.539 20.5 349.977 24.27 352.182 26.4749L398.525 72.818C400.73 75.0229 404.5 73.4613 404.5 70.3431Z"
      stroke="#96969633" />
    <path
      d="M404.5 150.343L404.5 104C404.5 102.067 402.933 100.5 401 100.5L354.657 100.5C351.539 100.5 349.977 104.27 352.182 106.475L398.525 152.818C400.73 155.023 404.5 153.461 404.5 150.343Z"
      stroke="#96969633" />
    <rect x="0.5" y="-0.5" width="59" height="59" rx="3.5" transform="matrix(1 0 0 -1 345 199)" stroke="#96969633" />
  </g>
  <defs>
    <clipPath id="clip0_394_120">
      <rect width="413" height="400" fill="white" transform="matrix(1 0 0 -1 0 400)" />
    </clipPath>
  </defs>
</svg>