<svg width="102" height="82" viewBox="0 0 102 82" fill="none" xmlns="http://www.w3.org/2000/svg">
<path d="M17.6966 41V41.5H18.1966V41H17.6966ZM17.6966 9V8.5H17.1966V9H17.6966ZM101.354 9.35355C101.549 9.15829 101.549 8.84171 101.354 8.64645L98.1716 5.46447C97.9763 5.2692 97.6597 5.2692 97.4645 5.46447C97.2692 5.65973 97.2692 5.97631 97.4645 6.17157L100.293 9L97.4645 11.8284C97.2692 12.0237 97.2692 12.3403 97.4645 12.5355C97.6597 12.7308 97.9763 12.7308 98.1716 12.5355L101.354 9.35355ZM0 41.5H17.6966V40.5H0V41.5ZM18.1966 41V9H17.1966V41H18.1966ZM17.6966 9.5H101V8.5H17.6966V9.5Z" fill="black"/>
<path d="M17.6966 41V40.5H18.1966V41H17.6966ZM17.6966 73V73.5H17.1966V73H17.6966ZM101.354 72.6464C101.549 72.8417 101.549 73.1583 101.354 73.3536L98.1716 76.5355C97.9763 76.7308 97.6597 76.7308 97.4645 76.5355C97.2692 76.3403 97.2692 76.0237 97.4645 75.8284L100.293 73L97.4645 70.1716C97.2692 69.9763 97.2692 69.6597 97.4645 69.4645C97.6597 69.2692 97.9763 69.2692 98.1716 69.4645L101.354 72.6464ZM0 40.5H17.6966V41.5H0V40.5ZM18.1966 41V73H17.1966V41H18.1966ZM17.6966 72.5H101V73.5H17.6966V72.5Z" fill="black"/>
<rect x="31" width="56" height="18" rx="4" fill="#E8E7E3"/>
<path d="M36.7383 11.7578L38.9414 4.54492H39.9844L37.2598 13H36.1582L33.4336 4.54492H34.5176L36.709 11.7578H36.7383ZM43.4824 13.1113C42.2695 13.1113 41.4609 12.3496 41.4609 11.1953C41.4609 10.0703 42.2695 9.40234 43.7168 9.32617L45.4629 9.23828V8.66406C45.4629 7.86719 44.9766 7.42773 44.0918 7.42773C43.3594 7.42773 42.8438 7.73828 42.6797 8.2832H41.7012C41.8184 7.26367 42.8027 6.56641 44.1035 6.56641C45.5977 6.56641 46.4531 7.32812 46.4531 8.65234V13.0059H45.5039V12.0508H45.4043C45.0996 12.7305 44.4082 13.1113 43.4824 13.1113ZM43.7695 12.2383C44.7305 12.2383 45.4629 11.5996 45.4629 10.75V10L43.8281 10.0762C42.9375 10.1172 42.4688 10.498 42.4688 11.1602C42.4688 11.8281 42.9668 12.2383 43.7695 12.2383ZM54.3223 13H49.0547V12.1738H51.2285V4.97266H49.0723V4.14648H52.2246V12.1738H54.3223V13ZM61.5645 6.64258V13H60.6094V11.8809H60.5273C60.1875 12.6719 59.4609 13.1172 58.4941 13.1172C57.1113 13.1172 56.3613 12.291 56.3613 10.7676V6.64258H57.3574V10.5156C57.3574 11.6641 57.8262 12.2031 58.8164 12.2031C59.8652 12.2031 60.5684 11.4707 60.5684 10.3867V6.64258H61.5645ZM68.0977 11.3594H69.0645C68.8711 12.4082 67.8633 13.1172 66.5273 13.1172C64.7812 13.1172 63.7676 12.0684 63.7676 10.2578V9.30273C63.7676 7.62695 64.8398 6.52539 66.457 6.52539C68.1094 6.52539 69.082 7.62109 69.082 9.46094V10.082H64.752V10.3398C64.752 11.5059 65.4434 12.2559 66.5273 12.2559C67.3301 12.2559 67.9219 11.916 68.0977 11.3594ZM66.4512 7.38086C65.3906 7.38086 64.752 8.10742 64.752 9.32617H68.0977C68.0977 8.11328 67.4766 7.38086 66.4512 7.38086ZM83.4023 13L82.6699 10.5742H79.7285L78.9902 13H77.9414L80.666 4.54492H81.7676L84.4922 13H83.4023ZM81.1875 5.78711L79.998 9.68945H82.4004L81.2168 5.78711H81.1875Z" fill="#161412"/>
<rect x="31" y="64" width="56" height="18" rx="4" fill="#E8E7E3"/>
<path d="M36.7383 75.7578L38.9414 68.5449H39.9844L37.2598 77H36.1582L33.4336 68.5449H34.5176L36.709 75.7578H36.7383ZM43.4824 77.1113C42.2695 77.1113 41.4609 76.3496 41.4609 75.1953C41.4609 74.0703 42.2695 73.4023 43.7168 73.3262L45.4629 73.2383V72.6641C45.4629 71.8672 44.9766 71.4277 44.0918 71.4277C43.3594 71.4277 42.8438 71.7383 42.6797 72.2832H41.7012C41.8184 71.2637 42.8027 70.5664 44.1035 70.5664C45.5977 70.5664 46.4531 71.3281 46.4531 72.6523V77.0059H45.5039V76.0508H45.4043C45.0996 76.7305 44.4082 77.1113 43.4824 77.1113ZM43.7695 76.2383C44.7305 76.2383 45.4629 75.5996 45.4629 74.75V74L43.8281 74.0762C42.9375 74.1172 42.4688 74.498 42.4688 75.1602C42.4688 75.8281 42.9668 76.2383 43.7695 76.2383ZM54.3223 77H49.0547V76.1738H51.2285V68.9727H49.0723V68.1465H52.2246V76.1738H54.3223V77ZM61.5645 70.6426V77H60.6094V75.8809H60.5273C60.1875 76.6719 59.4609 77.1172 58.4941 77.1172C57.1113 77.1172 56.3613 76.291 56.3613 74.7676V70.6426H57.3574V74.5156C57.3574 75.6641 57.8262 76.2031 58.8164 76.2031C59.8652 76.2031 60.5684 75.4707 60.5684 74.3867V70.6426H61.5645ZM68.0977 75.3594H69.0645C68.8711 76.4082 67.8633 77.1172 66.5273 77.1172C64.7812 77.1172 63.7676 76.0684 63.7676 74.2578V73.3027C63.7676 71.627 64.8398 70.5254 66.457 70.5254C68.1094 70.5254 69.082 71.6211 69.082 73.4609V74.082H64.752V74.3398C64.752 75.5059 65.4434 76.2559 66.5273 76.2559C67.3301 76.2559 67.9219 75.916 68.0977 75.3594ZM66.4512 71.3809C65.3906 71.3809 64.752 72.1074 64.752 73.3262H68.0977C68.0977 72.1133 67.4766 71.3809 66.4512 71.3809ZM81.375 77H78.6094V68.5449H81.3457C82.9043 68.5449 83.8418 69.3242 83.8418 70.6367C83.8418 71.5684 83.2383 72.3359 82.3887 72.4824V72.5703C83.5254 72.6816 84.2695 73.5078 84.2695 74.6387C84.2695 76.1211 83.1914 77 81.375 77ZM79.6348 69.4355V72.1953H80.9531C82.1543 72.1953 82.7988 71.709 82.7988 70.8184C82.7988 69.9336 82.1895 69.4355 81.1113 69.4355H79.6348ZM79.6348 76.1035H81.1523C82.4941 76.1035 83.1973 75.5762 83.1973 74.5684C83.1973 73.5723 82.4883 73.0566 81.1172 73.0566H79.6348V76.1035Z" fill="#161412"/>
</svg>
