<svg width="20" height="20" viewBox="0 0 20 20" fill="none" xmlns="http://www.w3.org/2000/svg">
<g id="Frame" clip-path="url(#clip0_118_69)">
<path id="Vector" d="M5 6.875V8.125C5 8.62228 5.19754 9.09919 5.54917 9.45083C5.90081 9.80246 6.37772 10 6.875 10H13.125C13.6223 10 14.0992 9.80246 14.4508 9.45083C14.8025 9.09919 15 8.62228 15 8.125V6.875" stroke="#E86339" stroke-width="1.5" stroke-linecap="round" stroke-linejoin="round"/>
<path id="Vector_2" d="M10 10V13.125" stroke="#E86339" stroke-width="1.5" stroke-linecap="round" stroke-linejoin="round"/>
<path id="Vector_3" d="M5 6.875C6.03553 6.875 6.875 6.03553 6.875 5C6.875 3.96447 6.03553 3.125 5 3.125C3.96447 3.125 3.125 3.96447 3.125 5C3.125 6.03553 3.96447 6.875 5 6.875Z" stroke="#E86339" stroke-width="1.5" stroke-linecap="round" stroke-linejoin="round"/>
<path id="Vector_4" d="M10 16.875C11.0355 16.875 11.875 16.0355 11.875 15C11.875 13.9645 11.0355 13.125 10 13.125C8.96447 13.125 8.125 13.9645 8.125 15C8.125 16.0355 8.96447 16.875 10 16.875Z" stroke="#E86339" stroke-width="1.5" stroke-linecap="round" stroke-linejoin="round"/>
<path id="Vector_5" d="M15 6.875C16.0355 6.875 16.875 6.03553 16.875 5C16.875 3.96447 16.0355 3.125 15 3.125C13.9645 3.125 13.125 3.96447 13.125 5C13.125 6.03553 13.9645 6.875 15 6.875Z" stroke="#E86339" stroke-width="1.5" stroke-linecap="round" stroke-linejoin="round"/>
</g>
<defs>
<clipPath id="clip0_118_69">
<rect width="20" height="20" fill="white"/>
</clipPath>
</defs>
</svg>
