<svg width="20" height="20" viewBox="0 0 20 20" fill="none" xmlns="http://www.w3.org/2000/svg">
  <path
    d="M5.625 3.11559V16.8843C5.62704 16.9942 5.65802 17.1016 5.7148 17.1957C5.77158 17.2898 5.85217 17.3672 5.94843 17.4202C6.0447 17.4732 6.15323 17.4999 6.2631 17.4976C6.37297 17.4953 6.48028 17.464 6.57422 17.407L17.8305 10.5226C17.9204 10.4682 17.9947 10.3915 18.0463 10.2999C18.0979 10.2084 18.1251 10.1051 18.1251 9.99997C18.1251 9.89487 18.0979 9.79154 18.0463 9.69998C17.9947 9.60843 17.9204 9.53173 17.8305 9.47731L6.57422 2.59293C6.48028 2.53591 6.37297 2.50466 6.2631 2.50234C6.15323 2.50001 6.0447 2.5267 5.94843 2.57971C5.85217 2.63271 5.77158 2.71016 5.7148 2.80424C5.65802 2.89833 5.62704 3.00572 5.625 3.11559Z"
    stroke="#E86339" stroke-width="1.5" stroke-linecap="round" stroke-linejoin="round" />

</svg>