<svg width="413" height="652" viewBox="0 0 413 652" fill="none" xmlns="http://www.w3.org/2000/svg">
  <path
    d="M54.3431 491.5L8 491.5C6.067 491.5 4.5 489.933 4.5 488L4.5 441.657C4.5 438.539 8.27 436.977 10.4749 439.182L56.818 485.525C59.0229 487.73 57.4613 491.5 54.3431 491.5Z"
    stroke="#96969633" />
  <path
    d="M54.3431 291.5L8 291.5C6.067 291.5 4.5 289.933 4.5 288L4.5 241.657C4.5 238.539 8.27 236.977 10.4749 239.182L56.818 285.525C59.0229 287.73 57.4613 291.5 54.3431 291.5Z"
    stroke="#96969633" />
  <path
    d="M54.3431 91.5L8 91.5C6.067 91.5 4.5 89.933 4.5 88L4.5 41.6569C4.5 38.5387 8.27 36.9771 10.4749 39.182L56.818 85.5251C59.0229 87.73 57.4613 91.5 54.3431 91.5Z"
    stroke="#96969633" />
  <path
    d="M54.3431 371.5L8 371.5C6.067 371.5 4.5 369.933 4.5 368L4.5 321.657C4.5 318.539 8.27 316.977 10.4749 319.182L56.818 365.525C59.0229 367.73 57.4613 371.5 54.3431 371.5Z"
    stroke="#96969633" />
  <path
    d="M54.3431 171.5L8 171.5C6.067 171.5 4.5 169.933 4.5 168L4.5 121.657C4.5 118.539 8.27 116.977 10.4749 119.182L56.818 165.525C59.0229 167.73 57.4613 171.5 54.3431 171.5Z"
    stroke="#96969633" />
  <path
    d="M63.5 522.343L63.5 476C63.5 474.067 61.933 472.5 60 472.5L13.6569 472.5C10.5387 472.5 8.9771 476.27 11.182 478.475L57.5251 524.818C59.73 527.023 63.5 525.461 63.5 522.343Z"
    stroke="#96969633" />
  <path
    d="M63.5 322.343L63.5 276C63.5 274.067 61.933 272.5 60 272.5L13.6569 272.5C10.5387 272.5 8.9771 276.27 11.182 278.475L57.5251 324.818C59.73 327.023 63.5 325.461 63.5 322.343Z"
    stroke="#96969633" />
  <path
    d="M63.5 122.343L63.5 76C63.5 74.067 61.933 72.5 60 72.5L13.6569 72.5C10.5387 72.5 8.9771 76.27 11.182 78.4749L57.5251 124.818C59.73 127.023 63.5 125.461 63.5 122.343Z"
    stroke="#96969633" />
  <path
    d="M63.5 402.343L63.5 356C63.5 354.067 61.933 352.5 60 352.5L13.6569 352.5C10.5387 352.5 8.9771 356.27 11.182 358.475L57.5251 404.818C59.73 407.023 63.5 405.461 63.5 402.343Z"
    stroke="#96969633" />
  <path
    d="M63.5 202.343L63.5 156C63.5 154.067 61.933 152.5 60 152.5L13.6569 152.5C10.5387 152.5 8.9771 156.27 11.182 158.475L57.5251 204.818C59.73 207.023 63.5 205.461 63.5 202.343Z"
    stroke="#96969633" />
  <path
    d="M63.5 2.34315L63.5 -44C63.5 -45.933 61.933 -47.5 60 -47.5L13.6569 -47.5C10.5387 -47.5 8.9771 -43.73 11.182 -41.5251L57.5251 4.81802C59.73 7.0229 63.5 5.46131 63.5 2.34315Z"
    stroke="#96969633" />
  <rect x="0.5" y="-0.5" width="59" height="59" rx="3.5" transform="matrix(1 0 0 -1 4 451)" stroke="#96969633" />
  <rect x="0.5" y="-0.5" width="59" height="59" rx="3.5" transform="matrix(1 0 0 -1 4 251)" stroke="#96969633" />
  <rect x="0.5" y="-0.5" width="59" height="59" rx="3.5" transform="matrix(1 0 0 -1 4 51)" stroke="#96969633" />
  <path
    d="M122.343 371.5L76 371.5C74.067 371.5 72.5 369.933 72.5 368L72.5 321.657C72.5 318.539 76.27 316.977 78.4749 319.182L124.818 365.525C127.023 367.73 125.461 371.5 122.343 371.5Z"
    stroke="#96969633" />
  <path
    d="M122.343 171.5L76 171.5C74.067 171.5 72.5 169.933 72.5 168L72.5 121.657C72.5 118.539 76.27 116.977 78.4749 119.182L124.818 165.525C127.023 167.73 125.461 171.5 122.343 171.5Z"
    stroke="#96969633" />
  <path
    d="M122.343 251.5L76 251.5C74.067 251.5 72.5 249.933 72.5 248L72.5 201.657C72.5 198.539 76.27 196.977 78.4749 199.182L124.818 245.525C127.023 247.73 125.461 251.5 122.343 251.5Z"
    stroke="#96969633" />
  <path
    d="M122.343 51.5L76 51.5C74.067 51.5 72.5 49.933 72.5 48L72.5 1.65685C72.5 -1.46131 76.27 -3.0229 78.4749 -0.81802L124.818 45.5251C127.023 47.73 125.461 51.5 122.343 51.5Z"
    stroke="#96969633" />
  <path
    d="M131.5 402.343L131.5 356C131.5 354.067 129.933 352.5 128 352.5L81.6569 352.5C78.5387 352.5 76.9771 356.27 79.182 358.475L125.525 404.818C127.73 407.023 131.5 405.461 131.5 402.343Z"
    stroke="#96969633" />
  <path
    d="M131.5 202.343L131.5 156C131.5 154.067 129.933 152.5 128 152.5L81.6569 152.5C78.5387 152.5 76.9771 156.27 79.182 158.475L125.525 204.818C127.73 207.023 131.5 205.461 131.5 202.343Z"
    stroke="#96969633" />
  <path
    d="M131.5 2.34315L131.5 -44C131.5 -45.933 129.933 -47.5 128 -47.5L81.6569 -47.5C78.5387 -47.5 76.9771 -43.73 79.182 -41.5251L125.525 4.81802C127.73 7.0229 131.5 5.46131 131.5 2.34315Z"
    stroke="#96969633" />
  <path
    d="M131.5 282.343L131.5 236C131.5 234.067 129.933 232.5 128 232.5L81.6569 232.5C78.5387 232.5 76.9771 236.27 79.182 238.475L125.525 284.818C127.73 287.023 131.5 285.461 131.5 282.343Z"
    stroke="#96969633" />
  <path
    d="M131.5 82.3431L131.5 36C131.5 34.067 129.933 32.5 128 32.5L81.6569 32.5C78.5387 32.5 76.9771 36.27 79.182 38.4749L125.525 84.818C127.73 87.0229 131.5 85.4613 131.5 82.3431Z"
    stroke="#96969633" />
  <rect x="0.5" y="-0.5" width="59" height="59" rx="3.5" transform="matrix(1 0 0 -1 72 331)" stroke="#96969633" />
  <rect x="0.5" y="-0.5" width="59" height="59" rx="3.5" transform="matrix(1 0 0 -1 72 131)" stroke="#96969633" />
  <path
    d="M190.343 551.5L144 551.5C142.067 551.5 140.5 549.933 140.5 548L140.5 501.657C140.5 498.539 144.27 496.977 146.475 499.182L192.818 545.525C195.023 547.73 193.461 551.5 190.343 551.5Z"
    stroke="#96969633" />
  <path
    d="M190.343 351.5L144 351.5C142.067 351.5 140.5 349.933 140.5 348L140.5 301.657C140.5 298.539 144.27 296.977 146.475 299.182L192.818 345.525C195.023 347.73 193.461 351.5 190.343 351.5Z"
    stroke="#96969633" />
  <path
    d="M190.343 151.5L144 151.5C142.067 151.5 140.5 149.933 140.5 148L140.5 101.657C140.5 98.5387 144.27 96.9771 146.475 99.182L192.818 145.525C195.023 147.73 193.461 151.5 190.343 151.5Z"
    stroke="#96969633" />
  <path
    d="M190.343 431.5L144 431.5C142.067 431.5 140.5 429.933 140.5 428L140.5 381.657C140.5 378.539 144.27 376.977 146.475 379.182L192.818 425.525C195.023 427.73 193.461 431.5 190.343 431.5Z"
    stroke="#96969633" />
  <path
    d="M190.343 231.5L144 231.5C142.067 231.5 140.5 229.933 140.5 228L140.5 181.657C140.5 178.539 144.27 176.977 146.475 179.182L192.818 225.525C195.023 227.73 193.461 231.5 190.343 231.5Z"
    stroke="#96969633" />
  <path
    d="M190.343 31.5L144 31.5C142.067 31.5 140.5 29.933 140.5 28L140.5 -18.3431C140.5 -21.4613 144.27 -23.0229 146.475 -20.818L192.818 25.5251C195.023 27.73 193.461 31.5 190.343 31.5Z"
    stroke="#96969633" />
  <path
    d="M199.5 582.343L199.5 536C199.5 534.067 197.933 532.5 196 532.5L149.657 532.5C146.539 532.5 144.977 536.27 147.182 538.475L193.525 584.818C195.73 587.023 199.5 585.461 199.5 582.343Z"
    stroke="#96969633" />
  <path
    d="M199.5 382.343L199.5 336C199.5 334.067 197.933 332.5 196 332.5L149.657 332.5C146.539 332.5 144.977 336.27 147.182 338.475L193.525 384.818C195.73 387.023 199.5 385.461 199.5 382.343Z"
    stroke="#96969633" />
  <path
    d="M199.5 182.343L199.5 136C199.5 134.067 197.933 132.5 196 132.5L149.657 132.5C146.539 132.5 144.977 136.27 147.182 138.475L193.525 184.818C195.73 187.023 199.5 185.461 199.5 182.343Z"
    stroke="#96969633" />
  <path
    d="M199.5 462.343L199.5 416C199.5 414.067 197.933 412.5 196 412.5L149.657 412.5C146.539 412.5 144.977 416.27 147.182 418.475L193.525 464.818C195.73 467.023 199.5 465.461 199.5 462.343Z"
    stroke="#96969633" />
  <path
    d="M199.5 262.343L199.5 216C199.5 214.067 197.933 212.5 196 212.5L149.657 212.5C146.539 212.5 144.977 216.27 147.182 218.475L193.525 264.818C195.73 267.023 199.5 265.461 199.5 262.343Z"
    stroke="#96969633" />
  <path
    d="M199.5 62.3431L199.5 16C199.5 14.067 197.933 12.5 196 12.5L149.657 12.5C146.539 12.5 144.977 16.27 147.182 18.4749L193.525 64.818C195.73 67.0229 199.5 65.4613 199.5 62.3431Z"
    stroke="#96969633" />
  <rect x="0.5" y="-0.5" width="59" height="59" rx="3.5" transform="matrix(1 0 0 -1 140 511)" stroke="#96969633" />
  <rect x="0.5" y="-0.5" width="59" height="59" rx="3.5" transform="matrix(1 0 0 -1 140 311)" stroke="#96969633" />
  <rect x="0.5" y="-0.5" width="59" height="59" rx="3.5" transform="matrix(1 0 0 -1 140 111)" stroke="#96969633" />
  <path
    d="M258.343 491.5L212 491.5C210.067 491.5 208.5 489.933 208.5 488L208.5 441.657C208.5 438.539 212.27 436.977 214.475 439.182L260.818 485.525C263.023 487.73 261.461 491.5 258.343 491.5Z"
    stroke="#96969633" />
  <path
    d="M258.343 291.5L212 291.5C210.067 291.5 208.5 289.933 208.5 288L208.5 241.657C208.5 238.539 212.27 236.977 214.475 239.182L260.818 285.525C263.023 287.73 261.461 291.5 258.343 291.5Z"
    stroke="#96969633" />
  <path
    d="M258.343 91.5L212 91.5C210.067 91.5 208.5 89.933 208.5 88L208.5 41.6569C208.5 38.5387 212.27 36.9771 214.475 39.182L260.818 85.5251C263.023 87.73 261.461 91.5 258.343 91.5Z"
    stroke="#96969633" />
  <path
    d="M258.343 371.5L212 371.5C210.067 371.5 208.5 369.933 208.5 368L208.5 321.657C208.5 318.539 212.27 316.977 214.475 319.182L260.818 365.525C263.023 367.73 261.461 371.5 258.343 371.5Z"
    stroke="#96969633" />
  <path
    d="M258.343 171.5L212 171.5C210.067 171.5 208.5 169.933 208.5 168L208.5 121.657C208.5 118.539 212.27 116.977 214.475 119.182L260.818 165.525C263.023 167.73 261.461 171.5 258.343 171.5Z"
    stroke="#96969633" />
  <path
    d="M267.5 522.343L267.5 476C267.5 474.067 265.933 472.5 264 472.5L217.657 472.5C214.539 472.5 212.977 476.27 215.182 478.475L261.525 524.818C263.73 527.023 267.5 525.461 267.5 522.343Z"
    stroke="#96969633" />
  <path
    d="M267.5 322.343L267.5 276C267.5 274.067 265.933 272.5 264 272.5L217.657 272.5C214.539 272.5 212.977 276.27 215.182 278.475L261.525 324.818C263.73 327.023 267.5 325.461 267.5 322.343Z"
    stroke="#96969633" />
  <path
    d="M267.5 122.343L267.5 76C267.5 74.067 265.933 72.5 264 72.5L217.657 72.5C214.539 72.5 212.977 76.27 215.182 78.4749L261.525 124.818C263.73 127.023 267.5 125.461 267.5 122.343Z"
    stroke="#96969633" />
  <path
    d="M267.5 402.343L267.5 356C267.5 354.067 265.933 352.5 264 352.5L217.657 352.5C214.539 352.5 212.977 356.27 215.182 358.475L261.525 404.818C263.73 407.023 267.5 405.461 267.5 402.343Z"
    stroke="#96969633" />
  <path
    d="M267.5 202.343L267.5 156C267.5 154.067 265.933 152.5 264 152.5L217.657 152.5C214.539 152.5 212.977 156.27 215.182 158.475L261.525 204.818C263.73 207.023 267.5 205.461 267.5 202.343Z"
    stroke="#96969633" />
  <path
    d="M267.5 2.34315L267.5 -44C267.5 -45.933 265.933 -47.5 264 -47.5L217.657 -47.5C214.539 -47.5 212.977 -43.73 215.182 -41.5251L261.525 4.81802C263.73 7.0229 267.5 5.46131 267.5 2.34315Z"
    stroke="#96969633" />
  <rect x="0.5" y="-0.5" width="59" height="59" rx="3.5" transform="matrix(1 0 0 -1 208 451)" stroke="#96969633" />
  <rect x="0.5" y="-0.5" width="59" height="59" rx="3.5" transform="matrix(1 0 0 -1 208 251)" stroke="#96969633" />
  <rect x="0.5" y="-0.5" width="59" height="59" rx="3.5" transform="matrix(1 0 0 -1 208 51)" stroke="#96969633" />
  <path
    d="M326.343 611.5L280 611.5C278.067 611.5 276.5 609.933 276.5 608L276.5 561.657C276.5 558.539 280.27 556.977 282.475 559.182L328.818 605.525C331.023 607.73 329.461 611.5 326.343 611.5Z"
    stroke="#96969633" />
  <path
    d="M326.343 411.5L280 411.5C278.067 411.5 276.5 409.933 276.5 408L276.5 361.657C276.5 358.539 280.27 356.977 282.475 359.182L328.818 405.525C331.023 407.73 329.461 411.5 326.343 411.5Z"
    stroke="#96969633" />
  <path
    d="M326.343 211.5L280 211.5C278.067 211.5 276.5 209.933 276.5 208L276.5 161.657C276.5 158.539 280.27 156.977 282.475 159.182L328.818 205.525C331.023 207.73 329.461 211.5 326.343 211.5Z"
    stroke="#96969633" />
  <path
    d="M326.343 491.5L280 491.5C278.067 491.5 276.5 489.933 276.5 488L276.5 441.657C276.5 438.539 280.27 436.977 282.475 439.182L328.818 485.525C331.023 487.73 329.461 491.5 326.343 491.5Z"
    stroke="#96969633" />
  <path
    d="M326.343 291.5L280 291.5C278.067 291.5 276.5 289.933 276.5 288L276.5 241.657C276.5 238.539 280.27 236.977 282.475 239.182L328.818 285.525C331.023 287.73 329.461 291.5 326.343 291.5Z"
    stroke="#96969633" />
  <path
    d="M326.343 91.5L280 91.5C278.067 91.5 276.5 89.933 276.5 88L276.5 41.6569C276.5 38.5387 280.27 36.9771 282.475 39.182L328.818 85.5251C331.023 87.73 329.461 91.5 326.343 91.5Z"
    stroke="#96969633" />
  <path
    d="M335.5 642.343L335.5 596C335.5 594.067 333.933 592.5 332 592.5L285.657 592.5C282.539 592.5 280.977 596.27 283.182 598.475L329.525 644.818C331.73 647.023 335.5 645.461 335.5 642.343Z"
    stroke="#96969633" />
  <path
    d="M335.5 442.343L335.5 396C335.5 394.067 333.933 392.5 332 392.5L285.657 392.5C282.539 392.5 280.977 396.27 283.182 398.475L329.525 444.818C331.73 447.023 335.5 445.461 335.5 442.343Z"
    stroke="#96969633" />
  <path
    d="M335.5 242.343L335.5 196C335.5 194.067 333.933 192.5 332 192.5L285.657 192.5C282.539 192.5 280.977 196.27 283.182 198.475L329.525 244.818C331.73 247.023 335.5 245.461 335.5 242.343Z"
    stroke="#96969633" />
  <path
    d="M335.5 522.343L335.5 476C335.5 474.067 333.933 472.5 332 472.5L285.657 472.5C282.539 472.5 280.977 476.27 283.182 478.475L329.525 524.818C331.73 527.023 335.5 525.461 335.5 522.343Z"
    stroke="#96969633" />
  <path
    d="M335.5 322.343L335.5 276C335.5 274.067 333.933 272.5 332 272.5L285.657 272.5C282.539 272.5 280.977 276.27 283.182 278.475L329.525 324.818C331.73 327.023 335.5 325.461 335.5 322.343Z"
    stroke="#96969633" />
  <path
    d="M335.5 122.343L335.5 76C335.5 74.067 333.933 72.5 332 72.5L285.657 72.5C282.539 72.5 280.977 76.27 283.182 78.4749L329.525 124.818C331.73 127.023 335.5 125.461 335.5 122.343Z"
    stroke="#96969633" />
  <rect x="0.5" y="-0.5" width="59" height="59" rx="3.5" transform="matrix(1 0 0 -1 276 571)" stroke="#96969633" />
  <rect x="0.5" y="-0.5" width="59" height="59" rx="3.5" transform="matrix(1 0 0 -1 276 371)" stroke="#96969633" />
  <rect x="0.5" y="-0.5" width="59" height="59" rx="3.5" transform="matrix(1 0 0 -1 276 171)" stroke="#96969633" />
  <path
    d="M395.343 491.5L349 491.5C347.067 491.5 345.5 489.933 345.5 488L345.5 441.657C345.5 438.539 349.27 436.977 351.475 439.182L397.818 485.525C400.023 487.73 398.461 491.5 395.343 491.5Z"
    stroke="#96969633" />
  <path
    d="M395.343 291.5L349 291.5C347.067 291.5 345.5 289.933 345.5 288L345.5 241.657C345.5 238.539 349.27 236.977 351.475 239.182L397.818 285.525C400.023 287.73 398.461 291.5 395.343 291.5Z"
    stroke="#96969633" />
  <path
    d="M395.343 91.5L349 91.5C347.067 91.5 345.5 89.933 345.5 88L345.5 41.6569C345.5 38.5387 349.27 36.9771 351.475 39.182L397.818 85.5251C400.023 87.73 398.461 91.5 395.343 91.5Z"
    stroke="#96969633" />
  <path
    d="M395.343 371.5L349 371.5C347.067 371.5 345.5 369.933 345.5 368L345.5 321.657C345.5 318.539 349.27 316.977 351.475 319.182L397.818 365.525C400.023 367.73 398.461 371.5 395.343 371.5Z"
    stroke="#96969633" />
  <path
    d="M395.343 171.5L349 171.5C347.067 171.5 345.5 169.933 345.5 168L345.5 121.657C345.5 118.539 349.27 116.977 351.475 119.182L397.818 165.525C400.023 167.73 398.461 171.5 395.343 171.5Z"
    stroke="#96969633" />
  <path
    d="M404.5 522.343L404.5 476C404.5 474.067 402.933 472.5 401 472.5L354.657 472.5C351.539 472.5 349.977 476.27 352.182 478.475L398.525 524.818C400.73 527.023 404.5 525.461 404.5 522.343Z"
    stroke="#96969633" />
  <path
    d="M404.5 322.343L404.5 276C404.5 274.067 402.933 272.5 401 272.5L354.657 272.5C351.539 272.5 349.977 276.27 352.182 278.475L398.525 324.818C400.73 327.023 404.5 325.461 404.5 322.343Z"
    stroke="#96969633" />
  <path
    d="M404.5 122.343L404.5 76C404.5 74.067 402.933 72.5 401 72.5L354.657 72.5C351.539 72.5 349.977 76.27 352.182 78.4749L398.525 124.818C400.73 127.023 404.5 125.461 404.5 122.343Z"
    stroke="#96969633" />
  <path
    d="M404.5 402.343L404.5 356C404.5 354.067 402.933 352.5 401 352.5L354.657 352.5C351.539 352.5 349.977 356.27 352.182 358.475L398.525 404.818C400.73 407.023 404.5 405.461 404.5 402.343Z"
    stroke="#96969633" />
  <path
    d="M404.5 202.343L404.5 156C404.5 154.067 402.933 152.5 401 152.5L354.657 152.5C351.539 152.5 349.977 156.27 352.182 158.475L398.525 204.818C400.73 207.023 404.5 205.461 404.5 202.343Z"
    stroke="#96969633" />
  <path
    d="M404.5 2.34315L404.5 -44C404.5 -45.933 402.933 -47.5 401 -47.5L354.657 -47.5C351.539 -47.5 349.977 -43.73 352.182 -41.5251L398.525 4.81802C400.73 7.0229 404.5 5.46131 404.5 2.34315Z"
    stroke="#96969633" />
  <rect x="0.5" y="-0.5" width="59" height="59" rx="3.5" transform="matrix(1 0 0 -1 345 451)" stroke="#96969633" />
  <rect x="0.5" y="-0.5" width="59" height="59" rx="3.5" transform="matrix(1 0 0 -1 345 251)" stroke="#96969633" />
  <rect x="0.5" y="-0.5" width="59" height="59" rx="3.5" transform="matrix(1 0 0 -1 345 51)" stroke="#96969633" />
</svg>