<svg width="72" height="72" viewBox="0 0 72 72" fill="none" xmlns="http://www.w3.org/2000/svg">
<g id="Frame 77">
<g id="Subtract">
<path fill-rule="evenodd" clip-rule="evenodd" d="M16 0C7.16344 0 0 7.16344 0 16V56C0 64.8366 7.16344 72 16 72H56C64.8366 72 72 64.8366 72 56V16C72 7.16344 64.8366 0 56 0H16ZM27.8995 29H36.1005C37.957 29 39.7375 28.2625 41.0503 26.9497L54.2929 13.7071C54.9229 13.0771 56 13.5233 56 14.4142V31.5147C56 33.106 55.3679 34.6321 54.2426 35.7574L49.0503 40.9497C47.7375 42.2625 45.957 43 44.1005 43H35.8995C34.043 43 32.2625 43.7375 30.9497 45.0503L17.7071 58.2929C17.0771 58.9229 16 58.4767 16 57.5858V40.4853C16 38.894 16.6321 37.3679 17.7574 36.2426L22.9497 31.0503C24.2625 29.7375 26.043 29 27.8995 29Z" fill="#EC6441"/>
<path fill-rule="evenodd" clip-rule="evenodd" d="M16 0C7.16344 0 0 7.16344 0 16V56C0 64.8366 7.16344 72 16 72H56C64.8366 72 72 64.8366 72 56V16C72 7.16344 64.8366 0 56 0H16ZM27.8995 29H36.1005C37.957 29 39.7375 28.2625 41.0503 26.9497L54.2929 13.7071C54.9229 13.0771 56 13.5233 56 14.4142V31.5147C56 33.106 55.3679 34.6321 54.2426 35.7574L49.0503 40.9497C47.7375 42.2625 45.957 43 44.1005 43H35.8995C34.043 43 32.2625 43.7375 30.9497 45.0503L17.7071 58.2929C17.0771 58.9229 16 58.4767 16 57.5858V40.4853C16 38.894 16.6321 37.3679 17.7574 36.2426L22.9497 31.0503C24.2625 29.7375 26.043 29 27.8995 29Z" fill="url(#paint0_linear_81_761)" fill-opacity="0.1"/>
</g>
</g>
<defs>
<linearGradient id="paint0_linear_81_761" x1="36" y1="4" x2="36" y2="68" gradientUnits="userSpaceOnUse">
<stop stop-color="white"/>
<stop offset="0.0001" stop-color="white"/>
<stop offset="1" stop-color="white" stop-opacity="0"/>
<stop offset="1" stop-color="white" stop-opacity="0"/>
</linearGradient>
</defs>
</svg>
